<?xml version="1.0" encoding="utf-8"?>
<!-- Generator: Adobe Illustrator 26.0.1, SVG Export Plug-In . SVG Version: 6.00 Build 0)  -->
<svg version="1.1" id="katman_1" xmlns="http://www.w3.org/2000/svg" xmlns:xlink="http://www.w3.org/1999/xlink" x="0px" y="0px"
	 viewBox="0 0 300 300" style="enable-background:new 0 0 300 300;" xml:space="preserve">
<style type="text/css">
	.st0{fill:#DA291C;}
</style>
<g>
	<g>
		<path class="st0" d="M254.6,254.3h-5.4c-1,0-1.5-1.4-0.7-2.1l1.5-1.3c1.3-1.1,3-1.8,4.7-1.8h5.4c1,0,1.5,1.4,0.7,2.1l-1.5,1.3
			C257.9,253.7,256.2,254.3,254.6,254.3"/>
	</g>
	<g>
		<path class="st0" d="M261.6,246.8l-5.4,0.4c-1,0.1-1.6-1.3-0.8-2l1.5-1.4c1.2-1.2,2.8-2,4.5-2.1l5.4-0.4c1-0.1,1.6,1.3,0.8,2
			l-1.4,1.4C264.9,245.9,263.3,246.7,261.6,246.8"/>
	</g>
	<g>
		<path class="st0" d="M268.1,238.7l-5.3,0.8c-1,0.1-1.7-1.2-1-2l1.3-1.5c1.1-1.3,2.7-2.2,4.3-2.4l5.3-0.8c1-0.1,1.7,1.2,1,2
			l-1.3,1.5C271.3,237.7,269.7,238.5,268.1,238.7"/>
	</g>
	<g>
		<path class="st0" d="M274,230.3l-5.3,1.1c-1,0.2-1.7-1-1.1-1.9l1.2-1.6c1-1.4,2.5-2.3,4.2-2.7l5.3-1.1c1-0.2,1.7,1,1.1,1.9
			l-1.2,1.6C277.1,229,275.6,229.9,274,230.3"/>
	</g>
	<g>
		<path class="st0" d="M279.3,221.5l-5.2,1.5c-1,0.3-1.8-0.9-1.2-1.8l1.1-1.7c1-1.5,2.4-2.5,4-3l5.2-1.5c1-0.3,1.8,0.9,1.2,1.8
			l-1.1,1.7C282.3,219.9,280.9,221,279.3,221.5"/>
	</g>
	<g>
		<path class="st0" d="M283.9,212.3l-5,1.8c-1,0.4-1.9-0.8-1.4-1.7l1-1.8c0.8-1.5,2.2-2.7,3.8-3.2l5-1.8c1-0.4,1.9,0.8,1.4,1.7
			l-1,1.8C286.9,210.6,285.5,211.7,283.9,212.3"/>
	</g>
	<g>
		<path class="st0" d="M288,202.8l-4.9,2.2c-0.9,0.4-1.9-0.7-1.5-1.6l0.9-1.8c0.7-1.6,2-2.8,3.5-3.5l4.9-2.2c1-0.4,1.9,0.7,1.5,1.6
			l-0.9,1.8C290.7,200.9,289.5,202.1,288,202.8"/>
	</g>
	<g>
		<path class="st0" d="M291.3,193l-4.8,2.5c-0.9,0.5-2-0.5-1.6-1.5l0.7-1.9c0.6-1.6,1.8-2.9,3.3-3.7l4.7-2.5c0.9-0.5,2,0.5,1.6,1.5
			l-0.7,1.9C293.9,190.9,292.8,192.3,291.3,193"/>
	</g>
	<g>
		<path class="st0" d="M294,183.1l-4.6,2.9c-0.9,0.5-2-0.4-1.7-1.4l0.6-1.9c0.5-1.7,1.6-3.1,3-4l4.5-2.8c0.9-0.6,2,0.4,1.7,1.4
			l-0.6,1.9C296.5,180.8,295.4,182.2,294,183.1"/>
	</g>
	<g>
		<path class="st0" d="M295.9,172.9l-4.3,3.2c-0.8,0.6-2-0.3-1.8-1.3l0.5-2c0.4-1.7,1.4-3.2,2.7-4.1l4.3-3.2c0.8-0.6,2,0.3,1.8,1.3
			l-0.5,2C298.2,170.5,297.3,172,295.9,172.9"/>
	</g>
	<g>
		<path class="st0" d="M297.2,162.7l-4.1,3.4c-0.8,0.7-2-0.1-1.9-1.1l0.3-2c0.3-1.7,1.1-3.3,2.4-4.3l4.1-3.4c0.8-0.7,2,0.1,1.9,1.1
			l-0.3,2C299.3,160.1,298.5,161.6,297.2,162.7"/>
	</g>
	<g>
		<path class="st0" d="M297.7,152.4l-3.9,3.7c-0.8,0.7-2,0-1.9-1l0.2-2c0.2-1.7,0.9-3.3,2.1-4.5l3.9-3.7c0.7-0.7,2,0,1.9,1l-0.2,2
			C299.7,149.7,298.9,151.3,297.7,152.4"/>
	</g>
	<g>
		<path class="st0" d="M297.5,142.1l-3.6,4c-0.7,0.8-2,0.2-2-0.9l0-2c0-1.7,0.7-3.4,1.8-4.6l3.6-4c0.7-0.8,2-0.2,2,0.9l0,2
			C299.3,139.2,298.6,140.9,297.5,142.1"/>
	</g>
	<g>
		<path class="st0" d="M296.6,131.9l-3.3,4.2c-0.6,0.8-2,0.3-2.1-0.7l-0.1-2c-0.1-1.7,0.4-3.4,1.5-4.7l3.3-4.2
			c0.6-0.8,2-0.3,2.1,0.7l0.1,2C298.2,128.9,297.6,130.5,296.6,131.9"/>
	</g>
	<g>
		<path class="st0" d="M295,121.7l-3,4.5c-0.6,0.9-2,0.4-2.1-0.6l-0.3-2c-0.2-1.7,0.2-3.4,1.1-4.8l3-4.5c0.6-0.9,2-0.5,2.1,0.6
			l0.3,2C296.3,118.6,295.9,120.3,295,121.7"/>
	</g>
	<g>
		<path class="st0" d="M292.6,111.6l-2.7,4.7c-0.5,0.9-2,0.6-2.2-0.4l-0.4-2c-0.3-1.7,0-3.4,0.8-4.9l2.7-4.7c0.5-0.9,2-0.6,2.2,0.4
			l0.4,2C293.8,108.5,293.5,110.2,292.6,111.6"/>
	</g>
	<g>
		<path class="st0" d="M289.6,101.8l-2.4,4.8c-0.4,0.9-1.9,0.7-2.2-0.3l-0.5-2c-0.4-1.7-0.3-3.4,0.4-4.9l2.4-4.8
			c0.4-0.9,1.9-0.7,2.2,0.3l0.5,2C290.5,98.5,290.4,100.3,289.6,101.8"/>
	</g>
	<g>
		<path class="st0" d="M285.9,92.2l-2,5c-0.4,1-1.8,0.9-2.2-0.2l-0.7-1.9c-0.6-1.7-0.5-3.4,0.1-5l2-5c0.4-1,1.8-0.9,2.2,0.1l0.7,1.9
			C286.6,88.9,286.5,90.6,285.9,92.2"/>
	</g>
	<g>
		<path class="st0" d="M281.5,82.8l-1.7,5.1c-0.3,1-1.8,1-2.2,0l-0.8-1.9c-0.7-1.6-0.8-3.4-0.2-5l1.7-5.1c0.3-1,1.8-1,2.2,0l0.8,1.9
			C282,79.5,282.1,81.2,281.5,82.8"/>
	</g>
	<g>
		<path class="st0" d="M276.5,73.8l-1.3,5.2c-0.3,1-1.7,1.1-2.2,0.2l-0.9-1.8c-0.8-1.5-1-3.3-0.6-4.9l1.3-5.2c0.3-1,1.7-1.1,2.2-0.2
			l0.9,1.8C276.7,70.4,276.9,72.2,276.5,73.8"/>
	</g>
	<g>
		<path class="st0" d="M270.9,65.2l-0.9,5.3c-0.2,1-1.6,1.2-2.2,0.3l-1-1.8c-0.9-1.5-1.2-3.2-0.9-4.9l0.9-5.3c0.2-1,1.6-1.2,2.2-0.3
			l1,1.8C270.9,61.8,271.2,63.5,270.9,65.2"/>
	</g>
	<g>
		<path class="st0" d="M264.7,57l-0.6,5.3c-0.1,1-1.5,1.3-2.1,0.5l-1.2-1.7c-1-1.4-1.5-3.1-1.3-4.8l0.6-5.3c0.1-1,1.5-1.3,2.1-0.5
			l1.2,1.7C264.4,53.6,264.9,55.3,264.7,57"/>
	</g>
	<g>
		<path class="st0" d="M257.9,49.2l-0.2,5.4c0,1-1.4,1.4-2.1,0.6l-1.3-1.6c-1.1-1.4-1.7-3-1.6-4.7l0.2-5.4c0-1,1.4-1.4,2.1-0.6
			l1.3,1.6C257.4,45.8,258,47.5,257.9,49.2"/>
	</g>
	<g>
		<path class="st0" d="M250.6,41.9l0.2,5.4c0,1-1.3,1.5-2.1,0.8l-1.4-1.5c-1.2-1.3-1.8-2.9-1.9-4.6l-0.2-5.4c0-1,1.3-1.5,2.1-0.8
			l1.4,1.5C249.9,38.6,250.6,40.2,250.6,41.9"/>
	</g>
	<g>
		<path class="st0" d="M242.8,35.2l0.6,5.3c0.1,1-1.2,1.6-2,0.9l-1.5-1.4c-1.3-1.2-2-2.8-2.2-4.4l-0.6-5.3c-0.1-1,1.2-1.6,2-0.9
			l1.5,1.4C241.9,31.9,242.7,33.5,242.8,35.2"/>
	</g>
	<g>
		<path class="st0" d="M234.6,29l0.9,5.3c0.2,1-1.1,1.7-1.9,1L232,34c-1.3-1.1-2.2-2.6-2.5-4.3l-0.9-5.3c-0.2-1,1.1-1.7,1.9-1
			l1.6,1.3C233.4,25.8,234.3,27.3,234.6,29"/>
	</g>
	<g>
		<path class="st0" d="M226,23.4l1.3,5.2c0.3,1-1,1.8-1.9,1.2l-1.7-1.2c-1.4-1-2.4-2.4-2.8-4.1l-1.3-5.2c-0.3-1,1-1.8,1.9-1.2
			l1.7,1.2C224.5,20.3,225.5,21.7,226,23.4"/>
	</g>
	<g>
		<path class="st0" d="M216.9,18.4l1.7,5.1c0.3,1-0.9,1.8-1.8,1.3l-1.7-1.1c-1.5-0.9-2.6-2.3-3.1-3.9l-1.7-5.1
			c-0.3-1,0.9-1.8,1.8-1.3l1.7,1.1C215.3,15.4,216.4,16.8,216.9,18.4"/>
	</g>
	<g>
		<path class="st0" d="M207.6,14l2,5c0.4,1-0.7,1.9-1.7,1.4l-1.8-0.9c-1.5-0.8-2.7-2.1-3.4-3.6l-2-5c-0.4-1,0.7-1.9,1.7-1.4l1.8,0.9
			C205.8,11.2,206.9,12.5,207.6,14"/>
	</g>
	<g>
		<path class="st0" d="M197.9,10.4l2.4,4.8c0.4,0.9-0.6,1.9-1.6,1.5l-1.9-0.8c-1.6-0.7-2.9-1.9-3.6-3.4l-2.4-4.8
			c-0.4-0.9,0.6-1.9,1.6-1.5l1.9,0.8C195.9,7.6,197.2,8.8,197.9,10.4"/>
	</g>
	<g>
		<path class="st0" d="M188.1,7.3l2.7,4.7c0.5,0.9-0.5,2-1.5,1.6l-1.9-0.7c-1.7-0.6-3-1.7-3.8-3.1l-2.7-4.7c-0.5-0.9,0.5-2,1.5-1.6
			l1.9,0.7C185.9,4.8,187.2,5.9,188.1,7.3"/>
	</g>
	<g>
		<path class="st0" d="M178,5l3,4.5c0.6,0.9-0.3,2-1.3,1.7l-2-0.5c-1.7-0.5-3.1-1.5-4.1-2.9l-3-4.5c-0.6-0.9,0.3-2,1.3-1.8l2,0.5
			C175.7,2.6,177.1,3.6,178,5"/>
	</g>
	<g>
		<path class="st0" d="M167.9,3.4l3.3,4.2c0.6,0.8-0.2,2-1.2,1.8l-2-0.4c-1.7-0.3-3.2-1.2-4.2-2.6l-3.3-4.2c-0.6-0.8,0.2-2,1.2-1.8
			l2,0.4C165.3,1.2,166.8,2.1,167.9,3.4"/>
	</g>
	<g>
		<path class="st0" d="M157.6,2.5l3.6,4c0.7,0.8,0,2-1.1,1.9l-2-0.3c-1.7-0.2-3.3-1-4.4-2.3l-3.6-4c-0.7-0.8,0-2,1.1-1.9l2,0.3
			C154.9,0.5,156.4,1.3,157.6,2.5"/>
	</g>
	<g>
		<path class="st0" d="M147.3,2.4l3.9,3.7c0.7,0.7,0.1,2-1,2l-2-0.1c-1.7-0.1-3.3-0.8-4.6-2l-3.8-3.7c-0.7-0.7-0.1-2,1-2l2,0.1
			C144.5,0.5,146,1.2,147.3,2.4"/>
	</g>
	<g>
		<path class="st0" d="M137,2.9l4.1,3.5c0.8,0.6,0.2,2-0.8,2l-2,0c-1.7,0-3.4-0.5-4.7-1.6l-4.1-3.4c-0.8-0.7-0.3-2,0.8-2l2,0
			C134,1.3,135.7,1.8,137,2.9"/>
	</g>
	<g>
		<path class="st0" d="M126.7,4.2l4.3,3.1c0.8,0.6,0.4,2-0.7,2.1l-2,0.2c-1.7,0.2-3.4-0.3-4.8-1.3l-4.3-3.1c-0.8-0.6-0.4-2,0.7-2.1
			l2-0.2C123.7,2.7,125.4,3.2,126.7,4.2"/>
	</g>
	<g>
		<path class="st0" d="M116.6,6.2l4.6,2.8c0.9,0.6,0.5,2-0.5,2.1l-2,0.3c-1.7,0.3-3.4-0.1-4.9-1l-4.6-2.8c-0.9-0.6-0.5-2,0.5-2.1
			l2-0.3C113.5,4.9,115.2,5.3,116.6,6.2"/>
	</g>
	<g>
		<path class="st0" d="M106.7,8.8l4.7,2.5c0.9,0.5,0.7,1.9-0.4,2.2l-2,0.4c-1.7,0.4-3.4,0.2-4.9-0.6l-4.8-2.5
			c-0.9-0.5-0.6-1.9,0.4-2.2l2-0.5C103.4,7.8,105.2,8.1,106.7,8.8"/>
	</g>
	<g>
		<path class="st0" d="M96.9,12.2l4.9,2.2c0.9,0.4,0.8,1.9-0.2,2.2l-2,0.6c-1.7,0.5-3.4,0.4-5-0.3l-4.9-2.2
			c-0.9-0.4-0.8-1.9,0.2-2.2l2-0.6C93.6,11.4,95.4,11.5,96.9,12.2"/>
	</g>
	<g>
		<path class="st0" d="M87.4,16.2l5,1.8c1,0.4,0.9,1.8-0.1,2.2L90.5,21c-1.6,0.6-3.4,0.6-5,0.1l-5-1.8c-1-0.4-0.9-1.8,0.1-2.2
			l1.9-0.7C84.1,15.7,85.8,15.7,87.4,16.2"/>
	</g>
	<g>
		<path class="st0" d="M78.3,20.9l5.2,1.5c1,0.3,1,1.7,0.1,2.2l-1.8,0.8c-1.6,0.7-3.3,0.9-4.9,0.4l-5.2-1.5c-1-0.3-1-1.7-0.1-2.2
			l1.8-0.9C74.9,20.6,76.6,20.5,78.3,20.9"/>
	</g>
	<g>
		<path class="st0" d="M69.4,26.2l5.3,1.1c1,0.2,1.2,1.7,0.2,2.2l-1.8,1c-1.5,0.8-3.3,1.1-4.9,0.8L63,30.2c-1-0.2-1.2-1.7-0.3-2.2
			l1.8-1C66,26.2,67.8,25.9,69.4,26.2"/>
	</g>
	<g>
		<path class="st0" d="M61,32.2l5.3,0.8c1,0.1,1.3,1.6,0.4,2.2L65,36.2c-1.5,1-3.2,1.3-4.8,1.1l-5.3-0.7c-1-0.1-1.3-1.6-0.4-2.2
			l1.7-1.1C57.6,32.3,59.3,31.9,61,32.2"/>
	</g>
	<g>
		<path class="st0" d="M53,38.7l5.4,0.4c1,0.1,1.4,1.5,0.5,2.1l-1.6,1.2c-1.4,1-3.1,1.5-4.7,1.4l-5.4-0.4c-1-0.1-1.4-1.5-0.5-2.1
			l1.6-1.2C49.6,39.1,51.3,38.6,53,38.7"/>
	</g>
	<g>
		<path class="st0" d="M45.4,45.7h5.4c1,0,1.5,1.4,0.7,2.1l-1.5,1.3c-1.3,1.1-2.9,1.8-4.6,1.8h-5.4c-1,0-1.5-1.4-0.7-2.1l1.5-1.3
			C42.1,46.3,43.8,45.7,45.4,45.7"/>
	</g>
	<g>
		<path class="st0" d="M38.4,53.3l5.4-0.4c1-0.1,1.6,1.3,0.8,2l-1.5,1.4c-1.2,1.2-2.8,2-4.5,2.1l-5.4,0.4c-1,0.1-1.6-1.3-0.8-2
			l1.4-1.4C35.1,54.1,36.7,53.4,38.4,53.3"/>
	</g>
	<g>
		<path class="st0" d="M32,61.3l5.3-0.7c1-0.1,1.7,1.2,1,2L36.9,64c-1.1,1.3-2.7,2.2-4.3,2.4l-5.3,0.8c-1,0.1-1.7-1.2-1-2l1.3-1.5
			C28.7,62.3,30.3,61.5,32,61.3"/>
	</g>
	<g>
		<path class="st0" d="M26,69.7l5.2-1.1c1-0.2,1.7,1,1.1,1.9l-1.2,1.6c-1.1,1.4-2.5,2.3-4.2,2.7l-5.3,1.1c-1,0.2-1.7-1-1.1-1.9
			l1.2-1.6C22.9,71,24.4,70.1,26,69.7"/>
	</g>
	<g>
		<path class="st0" d="M20.7,78.5l5.2-1.5c1-0.3,1.8,0.9,1.2,1.8L26,80.6c-1,1.5-2.4,2.5-4,3L16.9,85c-1,0.3-1.8-0.9-1.2-1.8
			l1.1-1.7C17.7,80.1,19.1,79,20.7,78.5"/>
	</g>
	<g>
		<path class="st0" d="M16.1,87.7l5-1.8c1-0.4,1.9,0.8,1.3,1.7l-1,1.8c-0.8,1.5-2.2,2.7-3.8,3.2l-5,1.8c-1,0.4-1.9-0.8-1.4-1.7
			l1-1.8C13.1,89.5,14.5,88.3,16.1,87.7"/>
	</g>
	<g>
		<path class="st0" d="M12.1,97.2l4.9-2.2c1-0.4,1.9,0.7,1.5,1.6l-0.9,1.8c-0.7,1.6-2,2.8-3.5,3.5l-4.9,2.2
			c-0.9,0.4-1.9-0.7-1.5-1.6l0.9-1.8C9.2,99.1,10.5,97.9,12.1,97.2"/>
	</g>
	<g>
		<path class="st0" d="M8.7,107l4.8-2.5c0.9-0.5,2,0.5,1.6,1.5l-0.7,1.9c-0.6,1.6-1.8,2.9-3.3,3.7l-4.7,2.5c-0.9,0.5-2-0.5-1.6-1.5
			l0.7-1.9C6.1,109.1,7.2,107.8,8.7,107"/>
	</g>
	<g>
		<path class="st0" d="M6,116.9l4.6-2.9c0.9-0.5,2,0.4,1.7,1.4l-0.6,2c-0.5,1.7-1.6,3.1-3,4l-4.6,2.8c-0.9,0.6-2-0.4-1.7-1.4
			l0.6-1.9C3.5,119.2,4.6,117.8,6,116.9"/>
	</g>
	<g>
		<path class="st0" d="M4.1,127.1l4.3-3.2c0.8-0.6,2,0.3,1.8,1.3l-0.4,2c-0.4,1.7-1.4,3.2-2.7,4.1l-4.3,3.2c-0.8,0.6-2-0.3-1.8-1.3
			l0.5-2C1.8,129.5,2.7,128.1,4.1,127.1"/>
	</g>
	<g>
		<path class="st0" d="M2.8,137.3l4.1-3.4c0.8-0.7,2,0.1,1.9,1.1l-0.3,2c-0.3,1.7-1.1,3.3-2.4,4.3L2,144.8c-0.8,0.7-2-0.1-1.9-1.1
			l0.3-2C0.7,139.9,1.5,138.4,2.8,137.3"/>
	</g>
	<g>
		<path class="st0" d="M2.3,147.6l3.9-3.7c0.7-0.7,2,0,1.9,1l-0.2,2c-0.2,1.7-0.9,3.3-2.1,4.5L2,155.1c-0.8,0.7-2,0-2-1l0.2-2
			C0.3,150.4,1.1,148.8,2.3,147.6"/>
	</g>
	<g>
		<path class="st0" d="M2.5,157.9l3.6-4c0.7-0.8,2-0.2,2,0.9l-0.1,2c0,1.7-0.7,3.4-1.8,4.6l-3.6,4c-0.7,0.8-2,0.2-2-0.9l0-2
			C0.7,160.8,1.4,159.2,2.5,157.9"/>
	</g>
	<g>
		<path class="st0" d="M3.4,168.1l3.3-4.2c0.6-0.8,2-0.3,2.1,0.7l0.1,2c0.1,1.7-0.4,3.4-1.5,4.7l-3.3,4.2c-0.6,0.8-2,0.3-2.1-0.8
			l-0.1-2C1.8,171.2,2.4,169.5,3.4,168.1"/>
	</g>
	<g>
		<path class="st0" d="M5,178.3l3-4.5c0.6-0.9,2-0.5,2.1,0.6l0.3,2c0.2,1.7-0.2,3.4-1.1,4.8l-3,4.5c-0.6,0.9-2,0.4-2.1-0.6l-0.3-2
			C3.7,181.4,4.1,179.7,5,178.3"/>
	</g>
	<g>
		<path class="st0" d="M7.4,188.4l2.7-4.7c0.5-0.9,2-0.6,2.2,0.4l0.4,2c0.3,1.7,0.1,3.4-0.8,4.9l-2.7,4.7c-0.5,0.9-2,0.6-2.2-0.4
			l-0.4-2C6.2,191.6,6.5,189.8,7.4,188.4"/>
	</g>
	<g>
		<path class="st0" d="M10.4,198.2l2.4-4.8c0.4-0.9,1.9-0.7,2.2,0.3l0.5,2c0.4,1.7,0.3,3.4-0.4,4.9l-2.4,4.8
			c-0.4,0.9-1.9,0.7-2.2-0.3l-0.5-2C9.5,201.5,9.6,199.7,10.4,198.2"/>
	</g>
	<g>
		<path class="st0" d="M14.1,207.8l2-5c0.4-1,1.8-0.9,2.2,0.1l0.7,1.9c0.6,1.7,0.5,3.4-0.1,5l-2,5c-0.4,1-1.8,0.9-2.2-0.1l-0.7-1.9
			C13.4,211.2,13.5,209.4,14.1,207.8"/>
	</g>
	<g>
		<path class="st0" d="M18.5,217.2l1.7-5.1c0.3-1,1.8-1,2.2,0l0.8,1.9c0.7,1.6,0.8,3.3,0.2,5l-1.7,5.1c-0.3,1-1.8,1-2.2,0l-0.8-1.9
			C18,220.5,17.9,218.8,18.5,217.2"/>
	</g>
	<g>
		<path class="st0" d="M23.5,226.2l1.3-5.2c0.3-1,1.7-1.1,2.2-0.2l0.9,1.8c0.8,1.6,1,3.3,0.6,4.9l-1.3,5.2c-0.3,1-1.7,1.1-2.2,0.1
			l-0.9-1.8C23.3,229.6,23.1,227.8,23.5,226.2"/>
	</g>
	<g>
		<path class="st0" d="M29.1,234.8l0.9-5.3c0.2-1,1.6-1.2,2.2-0.3l1,1.8c0.9,1.5,1.2,3.2,0.9,4.9l-0.9,5.3c-0.2,1-1.6,1.2-2.2,0.3
			l-1-1.8C29.1,238.2,28.8,236.5,29.1,234.8"/>
	</g>
	<g>
		<path class="st0" d="M35.3,243l0.6-5.3c0.1-1,1.5-1.3,2.2-0.5l1.2,1.7c1,1.4,1.4,3.1,1.3,4.8l-0.6,5.3c-0.1,1-1.5,1.3-2.1,0.5
			l-1.2-1.7C35.6,246.4,35.1,244.7,35.3,243"/>
	</g>
	<g>
		<path class="st0" d="M42.1,250.8l0.2-5.4c0-1,1.4-1.4,2.1-0.6l1.3,1.6c1.1,1.3,1.7,3,1.6,4.7l-0.2,5.4c0,1-1.4,1.4-2.1,0.6
			l-1.3-1.6C42.6,254.2,42,252.5,42.1,250.8"/>
	</g>
	<g>
		<path class="st0" d="M49.4,258.1l-0.2-5.4c0-1,1.3-1.5,2.1-0.8l1.4,1.5c1.2,1.3,1.8,2.9,1.9,4.6l0.2,5.4c0,1-1.3,1.5-2.1,0.8
			l-1.4-1.5C50.1,261.4,49.4,259.8,49.4,258.1"/>
	</g>
	<g>
		<path class="st0" d="M57.2,264.9l-0.6-5.3c-0.1-1,1.2-1.6,2-0.9l1.5,1.4c1.3,1.2,2,2.7,2.2,4.4l0.6,5.3c0.1,1-1.2,1.6-2,0.9
			l-1.5-1.4C58.1,268.1,57.3,266.5,57.2,264.9"/>
	</g>
	<g>
		<path class="st0" d="M65.4,271l-0.9-5.3c-0.2-1,1.1-1.7,1.9-1L68,266c1.3,1.1,2.2,2.6,2.5,4.3l0.9,5.3c0.2,1-1.1,1.7-1.9,1
			l-1.6-1.3C66.6,274.2,65.7,272.7,65.4,271"/>
	</g>
	<g>
		<path class="st0" d="M74,276.7l-1.3-5.2c-0.3-1,1-1.8,1.9-1.2l1.7,1.2c1.4,1,2.4,2.4,2.8,4.1l1.3,5.2c0.3,1-1,1.8-1.9,1.2
			l-1.7-1.2C75.5,279.7,74.5,278.3,74,276.7"/>
	</g>
	<g>
		<path class="st0" d="M83.1,281.6l-1.7-5.1c-0.3-1,0.9-1.8,1.8-1.3l1.7,1.1c1.5,0.9,2.6,2.3,3.1,3.9l1.7,5.1c0.3,1-0.9,1.8-1.8,1.3
			l-1.7-1.1C84.7,284.6,83.6,283.3,83.1,281.6"/>
	</g>
	<g>
		<path class="st0" d="M92.4,286l-2-5c-0.4-1,0.7-1.9,1.7-1.4l1.8,0.9c1.5,0.8,2.7,2.1,3.4,3.6l2,5c0.4,1-0.7,1.9-1.7,1.4l-1.8-0.9
			C94.3,288.8,93.1,287.5,92.4,286"/>
	</g>
	<g>
		<path class="st0" d="M102.1,289.7l-2.4-4.8c-0.4-0.9,0.6-1.9,1.6-1.5l1.9,0.8c1.6,0.7,2.9,1.9,3.6,3.4l2.4,4.8
			c0.4,0.9-0.6,1.9-1.6,1.5l-1.9-0.8C104.1,292.4,102.8,291.2,102.1,289.7"/>
	</g>
	<g>
		<path class="st0" d="M111.9,292.7l-2.7-4.7c-0.5-0.9,0.4-2,1.5-1.6l1.9,0.7c1.7,0.6,3,1.7,3.8,3.1l2.7,4.7c0.5,0.9-0.5,2-1.5,1.6
			l-1.9-0.7C114.1,295.2,112.8,294.1,111.9,292.7"/>
	</g>
	<g>
		<path class="st0" d="M122,295l-3-4.4c-0.6-0.9,0.3-2,1.3-1.7l2,0.5c1.7,0.4,3.1,1.5,4.1,2.9l3,4.5c0.6,0.8-0.3,2-1.3,1.7l-2-0.5
			C124.3,297.4,122.9,296.4,122,295"/>
	</g>
	<g>
		<path class="st0" d="M132.1,296.6l-3.3-4.2c-0.6-0.8,0.2-2,1.2-1.8l2,0.4c1.7,0.3,3.2,1.2,4.3,2.6l3.3,4.2c0.6,0.8-0.2,2-1.2,1.8
			l-2-0.4C134.7,298.8,133.2,297.9,132.1,296.6"/>
	</g>
	<g>
		<path class="st0" d="M142.4,297.5l-3.6-4c-0.7-0.8,0-2,1.1-1.9l2,0.3c1.7,0.2,3.3,1,4.4,2.3l3.6,4c0.7,0.8,0,2-1.1,1.9l-2-0.3
			C145.1,299.5,143.6,298.7,142.4,297.5"/>
	</g>
	<g>
		<path class="st0" d="M152.7,297.6l-3.9-3.7c-0.7-0.7-0.1-2,1-2l2,0.1c1.7,0.1,3.4,0.8,4.6,1.9l3.9,3.7c0.7,0.7,0.1,2-1,2l-2-0.1
			C155.5,299.5,154,298.8,152.7,297.6"/>
	</g>
	<g>
		<path class="st0" d="M163,297.1l-4.1-3.5c-0.8-0.7-0.3-2,0.8-2l2,0c1.7,0,3.4,0.5,4.7,1.6l4.1,3.4c0.8,0.6,0.3,2-0.8,2l-2,0
			C166,298.8,164.3,298.2,163,297.1"/>
	</g>
	<g>
		<path class="st0" d="M173.3,295.8l-4.3-3.2c-0.8-0.6-0.4-2,0.7-2.1l2-0.2c1.7-0.2,3.4,0.3,4.8,1.3l4.4,3.2c0.8,0.6,0.4,2-0.7,2.1
			l-2,0.2C176.3,297.3,174.6,296.8,173.3,295.8"/>
	</g>
	<g>
		<path class="st0" d="M183.4,293.8l-4.5-2.9c-0.9-0.5-0.5-2,0.5-2.1l2-0.3c1.7-0.3,3.4,0.1,4.9,1l4.6,2.8c0.9,0.5,0.5,2-0.5,2.1
			l-2,0.3C186.5,295.1,184.8,294.7,183.4,293.8"/>
	</g>
	<g>
		<path class="st0" d="M193.3,291.2l-4.7-2.5c-0.9-0.5-0.6-1.9,0.4-2.2l2-0.4c1.7-0.4,3.4-0.2,4.9,0.6l4.7,2.5
			c0.9,0.5,0.7,1.9-0.4,2.2l-2,0.4C196.6,292.2,194.8,292,193.3,291.2"/>
	</g>
	<g>
		<path class="st0" d="M203.1,287.8l-4.9-2.2c-0.9-0.4-0.8-1.9,0.2-2.2l2-0.6c1.7-0.5,3.4-0.4,5,0.3l4.9,2.2
			c0.9,0.4,0.8,1.9-0.2,2.2l-2,0.6C206.4,288.6,204.6,288.5,203.1,287.8"/>
	</g>
	<g>
		<path class="st0" d="M212.6,283.8l-5-1.8c-1-0.3-0.9-1.8,0.1-2.2l1.9-0.7c1.6-0.6,3.4-0.6,5-0.1l5,1.8c1,0.4,0.9,1.8-0.1,2.2
			l-1.9,0.7C215.9,284.3,214.2,284.3,212.6,283.8"/>
	</g>
	<g>
		<path class="st0" d="M221.7,279.1l-5.2-1.5c-1-0.3-1-1.7-0.1-2.2l1.8-0.8c1.6-0.7,3.3-0.9,5-0.4l5.2,1.5c1,0.3,1,1.7,0.1,2.2
			l-1.8,0.9C225.1,279.4,223.4,279.5,221.7,279.1"/>
	</g>
	<g>
		<path class="st0" d="M230.6,273.8l-5.3-1.1c-1-0.2-1.2-1.7-0.2-2.2l1.8-1c1.5-0.8,3.3-1.1,4.9-0.8l5.3,1.1c1,0.2,1.2,1.7,0.2,2.2
			l-1.8,1C234,273.8,232.2,274.1,230.6,273.8"/>
	</g>
	<g>
		<path class="st0" d="M239,267.8l-5.3-0.8c-1-0.1-1.3-1.6-0.4-2.2l1.7-1.1c1.5-1,3.2-1.3,4.8-1.1l5.3,0.8c1,0.1,1.3,1.6,0.4,2.2
			l-1.7,1.1C242.4,267.7,240.7,268.1,239,267.8"/>
	</g>
	<g>
		<path class="st0" d="M247,261.3l-5.4-0.4c-1-0.1-1.4-1.5-0.5-2.1l1.6-1.2c1.4-1,3.1-1.5,4.7-1.4l5.4,0.4c1,0.1,1.4,1.5,0.5,2.1
			l-1.6,1.2C250.4,261,248.7,261.5,247,261.3"/>
	</g>
	<g>
		<polygon class="st0" points="137.3,31.7 145.2,26 142.1,16.7 149.9,22.5 157.8,16.7 154.8,25.9 162.7,31.6 153,31.6 150,40.8 
			147.1,31.6 		"/>
	</g>
	<g>
		<polygon class="st0" points="93,45.5 98.1,37.3 91.7,29.9 101.1,32.2 106.2,23.9 106.9,33.5 116.4,35.8 107.5,39.4 108.2,49.1 
			102,41.8 		"/>
	</g>
	<g>
		<polygon class="st0" points="57.3,75.3 58.9,65.7 50.2,61.3 59.8,59.9 61.3,50.2 65.6,58.9 75.2,57.3 68.4,64.1 72.8,72.8 
			64.2,68.4 		"/>
	</g>
	<g>
		<polygon class="st0" points="35.8,116.4 33.6,107 23.9,106.3 32.1,101.3 29.8,91.8 37.2,98.1 45.5,93 41.7,101.9 49.1,108.2 
			39.5,107.4 		"/>
	</g>
	<g>
		<polygon class="st0" points="31.6,162.7 26,154.8 16.7,157.9 22.4,150.1 16.7,142.2 25.9,145.2 31.6,137.3 31.6,147 40.8,150 
			31.6,152.9 		"/>
	</g>
	<g>
		<polygon class="st0" points="45.5,207 37.3,201.9 29.9,208.3 32.2,198.9 23.9,193.8 33.5,193.1 35.8,183.6 39.4,192.6 49.1,191.8 
			41.7,198 		"/>
	</g>
	<g>
		<polygon class="st0" points="75.3,242.7 65.7,241.1 61.3,249.8 59.9,240.2 50.2,238.7 58.9,234.4 57.3,224.8 64.1,231.6 
			72.8,227.2 68.4,235.8 		"/>
	</g>
	<g>
		<polygon class="st0" points="116.4,264.2 107,266.4 106.3,276.1 101.3,267.9 91.8,270.2 98.1,262.9 93,254.6 101.9,258.3 
			108.2,250.9 107.4,260.5 		"/>
	</g>
	<g>
		<polygon class="st0" points="162.7,268.4 154.8,274 157.9,283.3 150.1,277.6 142.2,283.3 145.2,274.1 137.3,268.4 147,268.5 
			150,259.2 152.9,268.4 		"/>
	</g>
	<g>
		<polygon class="st0" points="207,254.5 201.9,262.7 208.3,270.1 198.9,267.8 193.8,276.1 193.1,266.5 183.6,264.3 192.5,260.6 
			191.8,250.9 198,258.3 		"/>
	</g>
	<g>
		<polygon class="st0" points="242.7,224.7 241.1,234.3 249.8,238.7 240.2,240.1 238.7,249.8 234.4,241.1 224.8,242.7 231.6,235.9 
			227.2,227.2 235.8,231.7 		"/>
	</g>
	<g>
		<polygon class="st0" points="264.2,183.6 266.4,193 276.1,193.7 267.9,198.8 270.2,208.2 262.8,201.9 254.5,207 258.3,198.1 
			250.9,191.8 260.5,192.6 		"/>
	</g>
	<g>
		<polygon class="st0" points="268.4,137.3 274,145.2 283.3,142.1 277.6,149.9 283.3,157.8 274.1,154.8 268.4,162.7 268.4,153 
			259.2,150 268.4,147.1 		"/>
	</g>
	<g>
		<polygon class="st0" points="254.5,93 262.7,98.1 270.1,91.7 267.8,101.1 276.1,106.2 266.5,106.9 264.2,116.4 260.6,107.5 
			250.9,108.2 258.2,102 		"/>
	</g>
	<g>
		<polygon class="st0" points="224.7,57.4 234.3,58.9 238.7,50.2 240.1,59.8 249.8,61.3 241.1,65.6 242.7,75.2 235.9,68.4 
			227.2,72.8 231.6,64.2 		"/>
	</g>
	<g>
		<polygon class="st0" points="183.6,35.8 193,33.6 193.7,23.9 198.7,32.1 208.2,29.8 201.9,37.2 207,45.5 198.1,41.7 191.8,49.1 
			192.6,39.5 		"/>
	</g>
	<g>
		<path class="st0" d="M150,75.8c-40.9,0-74.2,33.3-74.2,74.2s33.3,74.2,74.2,74.2s74.2-33.3,74.2-74.2
			C224.2,109.1,190.9,75.8,150,75.8 M150,226.4c-42.1,0-76.4-34.3-76.4-76.4s34.3-76.4,76.4-76.4s76.4,34.3,76.4,76.4
			C226.4,192.1,192.1,226.4,150,226.4"/>
	</g>
	<g>
		<path class="st0" d="M150,49.4C94.5,49.4,49.4,94.5,49.4,150S94.5,250.6,150,250.6S250.6,205.5,250.6,150
			C250.6,94.5,205.5,49.4,150,49.4 M150,252.9c-56.7,0-102.9-46.2-102.9-102.9C47.1,93.3,93.3,47.1,150,47.1
			c56.7,0,102.9,46.2,102.9,102.9C252.9,206.7,206.7,252.9,150,252.9"/>
	</g>
	<g>
		<polygon class="st0" points="121.5,237.4 124.7,238.5 123.9,240.8 114.8,237.6 115.6,235.4 118.8,236.5 122.1,226.9 124.8,227.8 
					"/>
	</g>
	<g>
		<path class="st0" d="M108.5,237c-0.3,0.6-1.1,0.9-1.7,0.6c-0.6-0.3-0.8-1.1-0.5-1.7c0.3-0.6,1-0.9,1.7-0.6
			C108.6,235.6,108.8,236.4,108.5,237 M105.1,235.2c-0.3,0.6-1.1,0.9-1.7,0.6c-0.6-0.3-0.8-1.1-0.5-1.7c0.3-0.6,1-0.9,1.7-0.6
			C105.2,233.8,105.4,234.6,105.1,235.2 M108.7,234.8l3.3-6.4c1-1.9,0.8-3.3-0.5-3.9c-1.3-0.7-2.5-0.1-3.5,1.8l-3.3,6.4l-2.5-1.3
			l3.2-6.2c1.8-3.4,4.4-4.2,7.3-2.7c2.8,1.5,3.7,3.9,1.8,7.4l-3.2,6.2L108.7,234.8z"/>
	</g>
	<g>
		<path class="st0" d="M98.9,222.6l-0.9-0.7c-1.1-0.8-2.2-0.8-2.9,0.1c-0.7,0.9-0.4,1.8,0.6,2.6c0.6,0.4,0.9,0.6,1.1,0.7L98.9,222.6
			z M98,228.6c-0.8-0.4-2-1.1-3.2-2c-1.5-1.1-2.4-2.1-2.7-3.2c-0.3-0.9-0.1-1.9,0.6-2.8c0.9-1.3,2.5-1.5,3.6-1.2l0,0
			c-0.5-0.8-0.4-1.8,0-2.9c0.5-1.4,1.2-2.9,1.3-3.4l2.3,1.7c0,0.4-0.4,1.4-1,2.9c-0.6,1.5-0.5,2.1,0.4,2.8l0.7,0.5l2.9-4l2.3,1.7
			L98,228.6z"/>
	</g>
	<g>
		<path class="st0" d="M87.1,220.4l-2-2l3.9-4l0,0c-0.5,0.1-1.1,0.3-1.6,0.4l-5,1l-2.5-2.4l6.7-0.9l1.9-8.2l2.4,2.3l-1.6,6l1.7-0.2
			l2.9-2.9l2,2L87.1,220.4z"/>
	</g>
	<g>
		<path class="st0" d="M76,208.4l9.7-7.9l1.8,2.2l-9.7,7.9L76,208.4z M76.1,211.8c-0.6,0.4-1.4,0.4-1.8-0.2
			c-0.4-0.5-0.4-1.3,0.2-1.8c0.5-0.4,1.3-0.4,1.8,0.2C76.8,210.5,76.7,211.3,76.1,211.8"/>
	</g>
	<g>
		<path class="st0" d="M82.1,195.6l-4.3,2.8l-4.1,7.3l-1.8-2.7l1.8-2.7c0.6-0.8,1-1.4,1.5-2.1l0,0c-0.8,0.2-1.6,0.3-2.5,0.5
			l-3.2,0.6l-1.7-2.7l8.4-0.5l4.4-2.8L82.1,195.6z"/>
	</g>
	<g>
		<polygon class="st0" points="69.5,183.4 71.4,187.6 74.1,186.4 72,181.7 74.1,180.7 77.4,187.9 66.1,193.3 62.8,186.2 64.9,185.3 
			67,189.7 69.3,188.6 67.4,184.4 		"/>
	</g>
	<g>
		<path class="st0" d="M69.2,165.7c0.4,0.4,0.9,1.5,1.3,3c1.1,4.2-1,7-4.5,7.9c-4.1,1.1-7.2-1.3-8.1-5c-0.4-1.4-0.3-2.6-0.2-3.1h2.3
			c-0.1,0.6-0.1,1.4,0.1,2.4c0.6,2.2,2.3,3.5,5,2.8c2.4-0.6,3.6-2.4,3-4.9c-0.2-0.8-0.6-1.7-1-2.2L69.2,165.7z"/>
	</g>
	<g>
		<path class="st0" d="M56.4,161.7l7.2-0.7c2.1-0.2,3.2-1.1,3-2.6c-0.1-1.5-1.3-2.2-3.5-2l-7.2,0.7l-0.3-2.8l7-0.7
			c3.8-0.4,5.9,1.4,6.2,4.6c0.3,3.1-1.2,5.2-5.2,5.5l-7,0.7L56.4,161.7z"/>
	</g>
	<g>
		<path class="st0" d="M64,139.3c-1.5-0.1-3.3-0.1-5.2-0.3v0.1c1.6,0.5,3.3,1.2,4.7,1.8l4.8,1.9l-0.2,2.2l-4.9,1
			c-1.5,0.3-3.3,0.6-5,0.8v0c1.7,0.2,3.6,0.4,5.2,0.6l4.7,0.6l-0.2,2.6l-12.4-1.8l0.3-3.8l4.3-0.9c1.5-0.3,3.1-0.5,4.5-0.7v-0.1
			c-1.4-0.5-3-1-4.4-1.5l-4-1.7l0.3-3.7l12.6,0.3l-0.2,2.8L64,139.3z"/>
	</g>
	<g>
		<polygon class="st0" points="58.3,128 62.9,129.2 64.1,124.7 59.5,123.5 60.2,120.8 72.3,124 71.6,126.7 66.5,125.4 65.3,129.9 
			70.4,131.2 69.6,134 57.6,130.7 		"/>
	</g>
	<g>
		<path class="st0" d="M63.1,113.4l6.6,3c2,0.9,3.3,0.6,3.9-0.7c0.6-1.3,0-2.5-2-3.4l-6.6-3l1.2-2.6l6.4,2.9
			c3.5,1.6,4.4,4.1,3.1,7.1c-1.3,2.9-3.7,3.9-7.3,2.2l-6.4-2.9L63.1,113.4z"/>
	</g>
	<g>
		<path class="st0" d="M74.8,103l0.6-0.9c0.8-1.2,0.6-2.3-0.3-2.9c-1-0.6-1.9-0.3-2.6,0.8c-0.4,0.6-0.5,0.9-0.6,1.1L74.8,103z
			 M68.7,102.4c0.4-0.8,1-2,1.8-3.3c1-1.6,2-2.5,3-2.9c0.9-0.3,1.9-0.2,2.8,0.5c1.3,0.9,1.7,2.4,1.4,3.5l0.1,0
			c0.8-0.5,1.7-0.5,2.9-0.1c1.4,0.4,3,1,3.5,1.1l-1.6,2.4c-0.4,0-1.4-0.3-2.9-0.9c-1.5-0.6-2.2-0.4-2.8,0.6l-0.5,0.7l4.1,2.7
			l-1.5,2.4L68.7,102.4z"/>
	</g>
	<g>
		<path class="st0" d="M78,89.2l9.7,7.9l-1.8,2.2l-9.7-7.9L78,89.2z M74.7,90c-0.6-0.5-0.6-1.3-0.2-1.8c0.4-0.5,1.2-0.6,1.8-0.1
			c0.5,0.4,0.6,1.2,0.2,1.8C76.1,90.4,75.3,90.5,74.7,90"/>
	</g>
	<g>
		<path class="st0" d="M91.7,92.7L88.1,89l-8-2.5l2.3-2.3l3,1.3c0.9,0.4,1.6,0.7,2.4,1l0,0c-0.3-0.8-0.6-1.5-1-2.4l-1.2-3l2.3-2.2
			l2.2,8.1l3.7,3.7L91.7,92.7z"/>
	</g>
	<g>
		<polygon class="st0" points="101.1,77.9 97.4,80.7 99.2,83.1 103.3,80 104.7,81.9 98.3,86.6 90.8,76.6 97,72 98.4,73.8 94.5,76.8 
			96,78.9 99.7,76.1 		"/>
	</g>
	<g>
		<polygon class="st0" points="104.1,70.4 101.2,72 100,69.9 108.4,65.3 109.6,67.3 106.6,69 111.5,77.9 109.1,79.3 		"/>
	</g>
	<g>
		<path class="st0" d="M114.2,62.8l4.9,11.5l-2.6,1.1l-4.9-11.5L114.2,62.8z M111,62c-0.3-0.7,0-1.4,0.7-1.7c0.6-0.3,1.4,0,1.7,0.7
			c0.3,0.6,0,1.4-0.6,1.7C112,63,111.2,62.7,111,62"/>
	</g>
	<g>
		<path class="st0" d="M135.9,68.8c-0.8,0.5-2.3,1.3-3.9,1.7c-2.2,0.5-4,0.4-5.4-0.5c-1.4-0.8-2.4-2.2-2.8-4c-1-4.1,1.5-7.1,5.4-8
			c1.6-0.4,2.9-0.4,3.5-0.2l-0.1,2.4c-0.7-0.1-1.6-0.2-3,0.2c-2.3,0.6-3.7,2.3-3.1,4.9c0.6,2.5,2.5,3.6,4.8,3.1
			c0.6-0.2,1.1-0.3,1.3-0.5l-0.6-2.6l-1.9,0.4l-0.5-2.2l4.5-1.1L135.9,68.8z"/>
	</g>
	<g>
		<polygon class="st0" points="146,63 141.4,63.4 141.6,66.4 146.7,66 147,68.3 139,69 137.9,56.5 145.6,55.8 145.8,58.1 
			140.9,58.5 141.2,61.1 145.8,60.7 		"/>
	</g>
	<g>
		<path class="st0" d="M149.7,68.2l0.7-12.5l3.3,0.2l2.3,4.7c0.7,1.4,1.3,3,1.8,4.4h0.1c-0.1-1.7-0.1-3.4,0.1-5.2l0.2-3.7l2.6,0.1
			L160,68.8l-3-0.2l-2.4-5c-0.7-1.4-1.4-3-1.9-4.5l-0.1,0c0,1.7-0.1,3.4-0.2,5.5l-0.2,3.8L149.7,68.2z"/>
	</g>
	<g>
		<path class="st0" d="M172.1,70.8c-0.5,0.1-1.7,0.2-3-0.1l-0.4,0.6c0.7,0.3,1.2,0.9,1,1.8c-0.3,1.3-1.5,1.4-2.5,1.2
			c-0.5-0.1-1.1-0.4-1.5-0.7l0.6-1c0.2,0.2,0.6,0.4,1,0.5c0.4,0.1,0.7,0,0.8-0.3c0.1-0.4-0.3-0.7-1.3-1l1-1.4
			c-3.4-1.2-4.6-4-3.9-7.2c0.9-4.2,4.4-5.9,8.1-5.1c1.4,0.3,2.5,0.8,2.9,1.2l-1,2.1c-0.5-0.4-1.2-0.8-2.2-1
			c-2.2-0.5-4.2,0.5-4.8,3.2c-0.5,2.5,0.6,4.3,3.1,4.8c0.8,0.2,1.8,0.2,2.4,0.1L172.1,70.8z"/>
	</g>
	<g>
		<polygon class="st0" points="178.6,60.1 181.2,61.1 177.8,70.6 182.5,72.3 181.7,74.6 174.3,71.9 		"/>
	</g>
	<g>
		<path class="st0" d="M190.2,62.6c0.3-0.6,1.1-0.9,1.7-0.6c0.6,0.3,0.9,1,0.6,1.7c-0.3,0.6-1,0.9-1.7,0.6
			C190.1,63.9,189.9,63.2,190.2,62.6 M191.8,65.5l-5.4,11.3l-2.6-1.2l5.4-11.3L191.8,65.5z"/>
	</g>
	<g>
		<path class="st0" d="M195.9,67.6l2.4,1.5l-2.9,4.7l0.1,0c0.5-0.3,1-0.5,1.5-0.7l4.6-2l3,1.8l-6.3,2.4l-0.1,8.4l-2.8-1.7l0.3-6.2
			l-1.6,0.6l-2.2,3.5l-2.4-1.5L195.9,67.6z"/>
	</g>
	<g>
		<path class="st0" d="M204.6,89.3l5.7-11.9l2.3,2.1l-2.5,4.9c-0.7,1.4-1.4,2.7-2.3,4l0,0c1.3-0.9,2.6-1.7,3.9-2.4l4.8-2.8l2.2,2.1
			L207,91.5L204.6,89.3z"/>
	</g>
	<g>
		<polygon class="st0" points="220.2,98.5 217.3,94.9 215,96.8 218.2,100.8 216.4,102.2 211.4,96 221.1,88.1 226,94.2 224.2,95.6 
			221.1,91.8 219.1,93.5 222,97 		"/>
	</g>
	<g>
		<path class="st0" d="M222.6,106.5c0,0.9,0.2,2.1,0.8,3.1c0.6,1.1,1.4,1.5,2.1,1.1c0.7-0.4,0.8-1.1,0.6-2.7c-0.4-2.2,0-3.9,1.6-4.8
			c1.9-1,4.2-0.2,5.6,2.4c0.7,1.2,0.9,2.3,1,3.1l-2.3,0.5c0-0.6-0.1-1.5-0.7-2.6c-0.6-1.1-1.4-1.3-1.9-1c-0.7,0.4-0.7,1.2-0.4,2.9
			c0.3,2.3-0.2,3.8-1.7,4.7c-1.8,1-4.2,0.4-5.8-2.6c-0.7-1.3-1-2.7-1-3.5L222.6,106.5z"/>
	</g>
	<g>
		<path class="st0" d="M232.2,117.4c0,0.3,0.1,0.5,0.3,0.9c0.5,1.4,1.6,2,2.8,1.5c1.1-0.4,1.4-1.4,0.9-2.7c-0.2-0.5-0.4-0.9-0.5-1.1
			L232.2,117.4z M236.5,112.8c0.4,0.8,1,1.9,1.6,3.5c0.6,1.6,0.8,2.9,0.4,3.9c-0.3,1-1.1,1.8-2.2,2.3c-1.1,0.4-2.3,0.4-3.2,0
			c-1.2-0.6-2.1-1.8-2.7-3.3c-0.1-0.3-0.2-0.7-0.3-0.9l-4.2,1.6l-1-2.6L236.5,112.8z"/>
	</g>
	<g>
		<path class="st0" d="M235.4,129c-2.4,0.5-3.9,2-3.5,3.8c0.4,1.9,2.4,2.6,4.8,2.1c2.2-0.4,3.9-1.9,3.5-3.8
			C239.8,129.2,237.8,128.5,235.4,129 M237.4,137.8c-4,0.8-7-1.1-7.7-4.7c-0.8-3.6,1.5-6.3,5-7.1c3.7-0.8,6.9,1,7.7,4.6
			C243.2,134.5,240.8,137.1,237.4,137.8"/>
	</g>
	<g>
		<path class="st0" d="M238.5,144.1l0.1,1.1c0.1,1.4,0.8,2.2,1.9,2.2c1.1-0.1,1.7-0.9,1.6-2.2c0-0.7-0.1-1.1-0.2-1.3L238.5,144.1z
			 M243.7,141c0.2,0.9,0.4,2.2,0.4,3.8c0.1,1.8-0.1,3.2-0.8,4.1c-0.6,0.8-1.4,1.2-2.6,1.3c-1.6,0.1-2.7-1-3.2-2h-0.1
			c-0.3,0.9-1.1,1.4-2.3,1.8c-1.4,0.5-3,0.9-3.5,1.2l-0.1-2.9c0.3-0.2,1.3-0.6,2.9-1c1.5-0.4,1.9-1,1.9-2.1l0-0.8l-4.9,0.3l-0.1-2.8
			L243.7,141z"/>
	</g>
	<g>
		<path class="st0" d="M238.6,161.1l-0.1,0.9c-0.2,1.5,0.3,2.4,1.2,2.5c0.9,0.1,1.5-0.5,1.7-1.8c0.1-0.6,0.1-1,0.1-1.2L238.6,161.1z
			 M233.1,160.4c-0.1,0.3-0.1,0.6-0.2,1.1c-0.2,1.3,0.1,2.5,1.4,2.6c1.3,0.2,1.9-0.9,2.1-2.3l0.1-1L233.1,160.4z M243.8,159
			c0,0.8-0.1,2.3-0.3,3.7c-0.2,1.7-0.6,2.7-1.2,3.6c-0.6,0.8-1.5,1.3-2.6,1.1c-1.1-0.2-2-1-2.4-2.4h0c-0.6,1.4-1.8,2.3-3.4,2
			c-1.1-0.2-1.9-0.8-2.4-1.7c-0.6-1-0.8-2.6-0.4-5c0.2-1.4,0.4-2.4,0.6-3L243.8,159z"/>
	</g>
	<g>
		<path class="st0" d="M233.1,176.1l2.8,0c0.8,0,1.7,0.1,2.5,0.1l0,0c-0.7-0.4-1.5-0.8-2.2-1.2l-2.3-1.5L233.1,176.1z M232,172.5
			l-2.8-1.8l0.8-2.8l10.9,7.2l-1.1,3.6l-13.1,0.1l0.9-2.9h3.4L232,172.5z"/>
	</g>
	<g>
		<path class="st0" d="M237.2,186.1l-1.2,2.5l-5-2.4l0,0.1c0.3,0.4,0.6,0.9,0.9,1.4l2.6,4.3l-1.5,3.1l-3.1-6l-8.4,0.9l1.4-3l6.2-0.5
			l-0.7-1.5l-3.7-1.7l1.2-2.5L237.2,186.1z"/>
	</g>
	<g>
		<path class="st0" d="M221.3,200l2.6,0.8c0.7,0.2,1.6,0.6,2.4,0.8l0,0c-0.5-0.6-1.2-1.3-1.7-1.8l-1.8-2.1L221.3,200z M221.3,196.2
			l-2.2-2.6l1.7-2.4l8.2,10.2l-2.1,3.1l-12.5-3.8l1.7-2.5l3.2,1L221.3,196.2z"/>
	</g>
	<g>
		<path class="st0" d="M213,202.3l9.1,8.6l-2.3,2.4l-5.1-1.3c-1.5-0.4-3.1-0.9-4.5-1.5l0,0c1.3,1,2.6,2.1,4,3.4l2.7,2.5l-1.8,1.9
			l-9.1-8.6l2-2.2l5.4,1.4c1.5,0.4,3.2,0.9,4.7,1.5l0-0.1c-1.3-1.1-2.6-2.3-4.1-3.7l-2.7-2.6L213,202.3z"/>
	</g>
	<g>
		<polygon class="st0" points="211.3,221.7 209.1,223.5 202.7,215.5 198.8,218.7 197.4,216.8 203.5,211.9 		"/>
	</g>
	<g>
		
			<rect x="196.2" y="217.8" transform="matrix(0.8408 -0.5414 0.5414 0.8408 -89.8079 142.6643)" class="st0" width="2.8" height="12.5"/>
	</g>
	<g>
		<path class="st0" d="M193,237.4c-0.2-0.3-0.7-0.6-1.4-0.3c-0.7,0.3-0.8,0.8-0.7,1.3l-1.3,0.6c-0.6-1.2-0.3-2.5,1.3-3.3
			c1.7-0.8,2.7-0.3,3.4,1L193,237.4z M181.2,226.4c0.6-0.6,2-1.7,3.4-2.5c2-1,3.8-1.2,5.3-0.7c1.5,0.5,2.8,1.7,3.6,3.3
			c1.8,3.8,0.1,7.2-3.6,9c-1.5,0.7-2.7,1-3.4,1l-0.5-2.3c0.8,0,1.6-0.2,2.9-0.8c2.1-1,3.1-3,1.9-5.5c-1.1-2.3-3.3-3-5.3-2
			c-0.6,0.3-1,0.6-1.2,0.8l1.1,2.4l1.7-0.8l1,2l-4.2,2L181.2,226.4z"/>
	</g>
	<g>
		
			<rect x="177.4" y="226.9" transform="matrix(0.9449 -0.3273 0.3273 0.9449 -66.4712 71.3633)" class="st0" width="2.8" height="12.5"/>
	</g>
	<g>
		<path class="st0" d="M150,234.9c-2,0-3.6,1.6-3.6,3.6c0,2,1.6,3.6,3.6,3.6c2,0,3.6-1.6,3.6-3.6C153.6,236.5,152,234.9,150,234.9"
			/>
	</g>
	<g>
		<path class="st0" d="M147,85.7c6.9,0,12.8,3.7,16.1,9.2c-2.7-3.3-6.8-5.4-11.4-5.4c-8.2,0-14.8,6.6-14.8,14.8s6.6,14.8,14.8,14.8
			c4.6,0,8.7-2.1,11.4-5.4c-3.3,5.5-9.2,9.2-16.1,9.2c-10.3,0-18.7-8.4-18.7-18.7C128.3,94,136.6,85.7,147,85.7"/>
	</g>
	<g>
		<polygon class="st0" points="169,95.6 173,101 179.3,98.9 175.4,104.3 179.4,109.7 173,107.7 169.1,113.2 169.1,106.5 
			162.6,104.4 169,102.3 		"/>
	</g>
	<g>
		<path class="st0" d="M143.4,164.2c-4.9,5-8.2,12.1-4.6,21.4c6.3,15.9,17.3,25.2,18.1,26.1c0,0-32.2-20.3-39.2-36.9
			c-4.5-10.6,2.6-17.4,12.6-18.6c1.5-0.2,3.3-0.4,5.3-0.6c0.5,1,1,2,1.7,3C137.7,159.1,139.5,161.7,143.4,164.2 M161.6,123.9
			c3.4,8.3,6.4,15.8,2.7,23.3c0,0-2.2,5.4-9.9,9.2c-1.1,0.6-2.4,1.3-3.7,2.1c-2.6-0.8-4.6-2.2-5.4-4.2c8.4-1.7,15.8-5,14.1-12.6
			c-0.8-3.3-1.4-5.1-4-8.7L161.6,123.9z M105.2,142.7c-0.4-6.8,4.9-12.6,11.7-13c6.8-0.4,12.6,4.9,13,11.7s-4.9,12.6-11.7,13
			C111.4,154.7,105.5,149.5,105.2,142.7"/>
	</g>
	<g>
		<path class="st0" d="M170.1,145.9c0-6.8,5.5-12.4,12.4-12.4c6.8,0,12.4,5.5,12.4,12.4c0,6.8-5.5,12.4-12.4,12.4
			C175.7,158.3,170.1,152.7,170.1,145.9"/>
	</g>
	<g>
		<path class="st0" d="M173.9,161.2c-10.1,0.4-31.8,2.9-30.9-9.8c0.4-5.8,5.8-15.2,11.6-23.8c-2.4,0.8-5,1.2-7.6,1.2
			c-3,0-5.8-0.5-8.5-1.5c-2.6,9.2-5.2,22.4,0.5,30.3c0,0,3,5,11.2,7.5s23.7,9.7,20,26.3c-3.7,16.6-13.1,27.6-13.8,28.7
			c0,0,28.6-25.1,33-42.5C192,166.4,183.9,160.7,173.9,161.2"/>
	</g>
</g>
</svg>
